<?xml version="1.0" standalone="no"?>
<!DOCTYPE svg PUBLIC "-//W3C//DTD SVG 20010904//EN"
 "http://www.w3.org/TR/2001/REC-SVG-20010904/DTD/svg10.dtd">
<svg version="1.0" xmlns="http://www.w3.org/2000/svg"
 width="322.000000pt" height="500.000000pt" viewBox="0 0 322.000000 500.000000"
 preserveAspectRatio="xMidYMid meet">

<g transform="translate(0.000000,500.000000) scale(0.100000,-0.100000)"
fill="#000000" stroke="none">
<path d="M1234 4984 c3 -8 2 -13 -3 -10 -5 3 -8 -5 -7 -18 1 -20 4 -22 22 -14
15 7 20 16 16 34 -2 13 -11 24 -19 24 -10 0 -13 -6 -9 -16z"/>
<path d="M1280 4980 c0 -20 1 -20 25 -4 14 9 25 18 25 20 0 2 -11 4 -25 4 -18
0 -25 -5 -25 -20z"/>
<path d="M3105 4845 c-28 -27 -67 -63 -88 -78 -21 -16 -52 -51 -68 -77 -33
-54 -107 -103 -172 -113 -42 -7 -97 -54 -97 -84 0 -9 -9 -26 -19 -37 -17 -19
-20 -39 -22 -174 l-3 -154 35 -46 c21 -28 46 -49 64 -54 26 -7 33 -4 56 22 50
59 54 75 29 109 -12 17 -25 29 -29 27 -4 -3 -14 -30 -21 -61 -7 -30 -15 -55
-18 -55 -3 0 -11 8 -18 18 -9 11 -13 50 -14 116 l0 99 33 -8 c17 -4 42 -9 54
-12 18 -4 26 2 39 30 15 32 15 38 -1 88 -10 30 -26 60 -37 67 -27 19 -23 27
24 48 56 25 99 64 138 124 17 27 63 74 101 105 83 67 101 92 91 125 -7 25 -8
24 -57 -25z m-331 -455 c10 -28 17 -52 15 -54 -2 -2 -19 -1 -36 1 -31 5 -33 7
-33 48 0 90 23 92 54 5z"/>
<path d="M1700 4783 c-101 -5 -108 -8 -82 -36 15 -16 23 -46 31 -112 15 -120
14 -178 -1 -169 -8 5 -9 -5 -4 -37 24 -143 24 -140 10 -135 -18 7 -18 3 1
-219 22 -270 25 -306 32 -355 11 -75 21 -13 22 138 1 72 4 132 7 132 4 0 13
-8 20 -17 11 -15 13 -3 14 82 1 95 2 98 16 70 13 -27 14 -18 10 110 l-5 140
28 -34 c24 -29 32 -33 57 -27 16 4 39 16 50 28 14 12 32 18 49 16 26 -3 27 -5
29 -68 6 -173 1 -156 57 -216 29 -30 59 -54 68 -54 9 0 39 13 66 28 50 27 50
27 53 82 2 30 1 105 -3 167 l-7 112 -40 46 c-22 25 -46 45 -54 45 -25 0 -127
-63 -132 -82 -2 -11 -13 -18 -27 -18 -22 0 -22 1 -17 126 l5 125 -48 70 c-46
68 -48 69 -89 67 -22 -1 -75 -3 -116 -5z m128 -78 c3 -3 7 -63 10 -135 l5
-130 -42 0 -41 0 0 141 0 142 32 -7 c17 -3 34 -8 36 -11z m262 -290 c-7 -9
-15 -13 -17 -11 -7 7 7 26 19 26 6 0 6 -6 -2 -15z m-260 -29 c0 -11 -19 -15
-25 -6 -3 5 1 10 9 10 9 0 16 -2 16 -4z m315 -78 c3 -35 5 -94 3 -133 -3 -64
-5 -70 -31 -85 -47 -25 -57 0 -57 146 0 119 1 123 23 127 55 11 55 10 62 -55z"/>
<path d="M226 4716 c-14 -19 -26 -43 -26 -53 0 -15 -2 -15 -10 -3 -7 12 -11
10 -20 -10 -5 -14 -20 -41 -31 -59 -14 -24 -16 -31 -5 -22 9 8 16 19 16 27 0
7 5 16 11 19 6 4 9 0 7 -8 -2 -9 2 -15 7 -14 6 1 9 5 8 9 -2 4 4 5 12 2 21 -8
19 -52 -4 -95 -20 -36 -20 -37 0 -57 17 -19 19 -36 19 -147 l0 -125 -40 20
c-51 26 -59 45 -29 69 22 18 22 20 6 26 -23 10 -77 -13 -77 -33 0 -26 48 -80
95 -108 l45 -26 0 -122 c0 -110 -2 -125 -20 -141 -15 -14 -17 -21 -9 -31 6 -8
8 -26 5 -41 -4 -16 -3 -23 1 -18 4 6 31 12 58 14 28 2 57 7 66 12 9 4 19 6 22
2 10 -9 -5 101 -14 112 -5 5 -9 55 -9 110 l0 102 59 30 58 30 2 -146 c1 -162
-7 -212 -40 -247 -17 -18 -19 -25 -8 -28 23 -7 189 -14 189 -8 0 3 -10 16 -23
30 -21 23 -22 29 -22 252 0 126 3 231 6 234 3 3 20 9 38 12 30 6 33 5 27 -13
-10 -30 32 -205 53 -226 18 -18 20 -18 51 -2 30 16 34 16 42 1 14 -25 31 -19
71 22 36 37 47 62 27 62 -5 0 -9 35 -10 78 -2 229 -6 246 -83 320 -39 37 -46
36 -114 -15 -41 -30 -42 -59 -5 -115 l27 -42 3 37 c2 27 11 42 32 57 34 24 40
15 40 -67 0 -45 -3 -53 -13 -44 -9 7 -46 9 -105 5 l-92 -5 11 28 c12 32 10 92
-4 111 -13 17 -3 85 21 130 13 25 17 44 11 59 -8 22 -10 22 -138 15 -32 -2
-33 -3 -18 -20 14 -15 17 -39 16 -118 0 -99 0 -99 -15 -62 -9 20 -31 53 -49
72 -18 19 -32 43 -31 53 1 15 -8 18 -57 21 -53 3 -56 4 -47 23 6 11 8 25 4 32
-4 6 -3 9 1 4 8 -7 45 39 45 56 0 17 -19 5 -44 -27z m184 -441 c-13 -22 -59
-61 -84 -71 -14 -5 -16 4 -16 65 0 39 5 89 12 110 11 34 16 39 41 39 15 -1 33
4 40 11 16 17 23 -125 7 -154z m324 -27 c15 -76 3 -148 -25 -148 -8 0 -29 112
-29 151 0 18 6 24 24 25 19 1 25 -4 30 -28z"/>
<path d="M2282 4612 c-40 -40 -70 -77 -67 -82 3 -6 19 -10 36 -10 l29 0 0
-243 c0 -274 -7 -250 84 -310 48 -32 57 -29 20 8 l-27 27 6 166 c4 91 7 207 7
259 0 91 0 93 24 93 13 0 26 7 30 15 6 17 -19 45 -40 45 -10 0 -14 13 -14 49
0 28 -3 51 -7 53 -5 2 -41 -30 -81 -70z"/>
<path d="M1152 4624 c-23 -18 -31 -31 -27 -43 10 -24 5 -275 -5 -281 -6 -4 -6
-19 0 -40 15 -51 12 -106 -5 -120 -24 -20 -8 -30 48 -27 l52 2 -3 225 c-1 152
1 220 8 210 5 -8 10 -36 10 -62 0 -27 3 -48 6 -48 16 0 64 43 64 58 0 19 -29
102 -43 119 -6 9 -15 10 -27 3 -14 -7 -19 -5 -23 10 -7 26 -15 25 -55 -6z"/>
<path d="M2515 4600 c-14 -22 -42 -58 -61 -80 -36 -40 -38 -60 -5 -60 17 0 19
-18 25 -232 6 -199 10 -235 24 -249 19 -19 132 -79 147 -79 17 1 67 82 57 92
-5 5 -33 8 -63 6 l-54 -3 32 -16 c22 -10 29 -19 24 -28 -7 -11 -14 -10 -38 4
l-30 17 -6 235 c-4 129 -5 239 -1 244 3 5 15 9 28 9 46 0 42 35 -5 45 -28 6
-29 9 -29 65 0 32 -4 62 -10 65 -5 3 -21 -13 -35 -35z"/>
<path d="M910 4594 c-50 -39 -62 -64 -32 -64 18 0 20 -10 25 -117 11 -253 10
-298 -7 -312 -26 -22 -8 -31 60 -31 67 0 73 3 50 29 -11 12 -15 65 -19 221 -2
119 -1 195 4 182 5 -13 10 -43 11 -68 1 -51 14 -55 54 -21 26 23 27 24 14 76
-16 66 -51 111 -73 93 -12 -11 -16 -8 -25 18 -6 16 -12 30 -14 29 -2 0 -23
-16 -48 -35z"/>
<path d="M143 4538 c-18 -28 -33 -61 -30 -64 2 -2 14 14 26 36 20 36 24 58 4
28z"/>
<path d="M2927 4504 c-29 -36 -35 -50 -26 -60 6 -8 14 -56 16 -106 l5 -93 -34
-30 c-31 -29 -32 -30 -11 -33 22 -3 22 -5 7 -28 -15 -22 -15 -24 1 -30 13 -5
15 -14 10 -48 -4 -22 -12 -47 -17 -53 -7 -9 -7 -17 0 -26 7 -7 7 -18 2 -27 -5
-9 -3 -21 6 -34 8 -11 14 -28 14 -38 0 -24 38 -33 59 -14 10 9 23 16 29 16 7
0 12 5 12 10 0 18 46 11 65 -10 24 -27 28 -117 5 -111 -8 3 -36 7 -63 9 -41 3
-46 2 -41 -13 6 -15 4 -16 -16 -3 -18 10 -24 10 -27 1 -3 -7 -16 -13 -29 -13
-14 0 -22 4 -19 10 3 6 2 10 -3 10 -15 0 -137 -149 -144 -178 -6 -19 -3 -30 8
-39 11 -8 12 -13 3 -18 -6 -4 -14 -3 -18 2 -11 18 -36 -2 -36 -29 -1 -16 2
-28 5 -28 11 0 3 -80 -9 -94 -9 -10 -8 -15 3 -19 19 -7 26 1 26 30 0 14 6 23
16 23 11 0 14 -5 10 -16 -3 -9 -6 -22 -6 -30 0 -8 -6 -14 -14 -14 -7 0 -19 -6
-25 -14 -10 -12 -5 -14 29 -13 22 1 40 5 40 10 0 13 30 8 30 -5 0 -9 2 -10 8
-2 4 6 32 14 62 17 l55 6 -44 -10 -44 -11 7 -51 c25 -205 16 -407 -20 -421 -8
-3 -14 -15 -14 -27 0 -12 -5 -19 -12 -16 -7 2 -12 11 -12 20 1 8 -4 13 -11 11
-6 -3 -18 2 -25 11 -7 8 -18 15 -25 15 -8 0 -15 6 -18 13 -3 10 -9 10 -26 0
-11 -7 -28 -13 -38 -13 -9 0 -43 -9 -76 -21 -32 -11 -61 -19 -63 -16 -3 2 23
15 56 27 33 12 63 27 66 32 3 5 -5 17 -18 28 -21 17 -22 19 -5 26 13 4 27 -2
47 -21 15 -14 30 -23 33 -18 5 8 -10 357 -17 383 -3 12 -10 -117 -9 -182 0
-10 -6 -18 -12 -18 -7 0 -15 -13 -18 -30 -5 -21 -12 -30 -27 -30 -16 0 -20 7
-21 33 l-1 32 -8 -30 c-7 -28 -8 -28 -9 -5 -1 18 -4 21 -10 11 -5 -7 -10 -9
-12 -3 -2 5 -15 13 -28 17 -19 6 -23 4 -18 -8 4 -11 -5 -16 -35 -21 -26 -4
-42 -13 -45 -24 -2 -10 -13 -24 -25 -31 -11 -7 -17 -8 -14 -3 6 10 -26 22 -54
21 -10 0 -9 -3 5 -10 16 -7 14 -8 -10 -3 -36 7 -37 7 -30 27 7 17 53 29 61 16
10 -17 36 4 31 27 -5 29 6 47 33 51 17 2 20 -1 15 -17 -7 -23 10 -27 19 -4 3
8 10 12 16 9 18 -11 11 50 -8 71 -19 20 -22 26 -22 47 0 9 -2 9 -8 0 -8 -13
-138 -37 -153 -28 -5 4 -9 -2 -9 -13 0 -15 6 -18 30 -14 25 4 30 1 30 -17 0
-15 -6 -21 -21 -21 -14 0 -19 -5 -16 -14 3 -8 -1 -17 -9 -20 -14 -5 -13 -8 2
-23 16 -16 15 -18 -5 -31 -18 -13 -21 -24 -21 -94 0 -44 5 -88 10 -99 9 -15 7
-19 -6 -19 -10 0 -25 -6 -33 -14 -9 -7 -35 -23 -58 -36 -41 -23 -43 -23 -63
-5 -11 10 -20 13 -20 7 0 -6 5 -14 10 -17 8 -5 7 -11 -1 -21 -9 -11 -15 -11
-25 -3 -8 6 -26 8 -44 4 -32 -7 -42 8 -12 20 15 6 14 8 -7 16 -17 7 -29 5 -40
-4 -9 -7 -43 -36 -76 -64 -101 -84 -113 -89 -195 -75 -39 7 -79 17 -90 24 -19
12 -19 13 1 34 38 41 79 298 52 325 -8 8 -29 -6 -77 -49 -78 -71 -155 -112
-209 -112 -26 0 -58 -11 -93 -31 -52 -29 -54 -32 -54 -74 0 -73 -26 -107 -32
-42 -2 24 -7 31 -21 29 -21 -4 -23 14 -2 22 8 3 15 1 15 -4 0 -6 5 -10 10 -10
20 0 10 21 -15 30 -17 6 -23 14 -18 25 3 10 -2 22 -16 31 -31 22 -26 38 6 17
l26 -18 -17 28 c-11 16 -14 27 -7 27 6 0 11 -6 11 -12 0 -10 3 -9 9 1 7 11 11
9 21 -9 10 -18 9 -24 -1 -31 -7 -4 -10 -11 -7 -15 14 -13 58 26 58 51 0 13 4
27 10 30 5 3 10 17 10 31 0 14 -4 22 -10 19 -5 -3 -10 -2 -10 4 0 5 4 12 9 15
14 9 21 47 8 45 -7 -1 -23 -1 -37 0 l-25 2 24 13 c14 8 19 15 12 17 -7 3 -13
13 -15 23 -1 10 -10 24 -19 31 -11 8 -13 15 -6 22 6 6 4 10 -8 10 -50 -1 -74
4 -68 13 3 6 -1 10 -10 10 -9 0 -13 5 -10 10 16 26 -171 2 -191 -24 -6 -9 -16
-16 -22 -16 -5 0 -23 -20 -39 -45 -15 -25 -31 -45 -35 -45 -4 0 -12 -26 -19
-57 -7 -32 -19 -62 -27 -66 -21 -13 -5 -83 33 -145 39 -63 106 -105 168 -105
31 0 40 -4 52 -28 8 -15 15 -32 15 -37 0 -14 -31 -45 -83 -85 -37 -28 -58 -37
-88 -37 -21 0 -39 -4 -39 -8 0 -13 35 -42 51 -42 9 0 6 -6 -8 -18 -16 -11 -25
-32 -29 -64 -4 -27 -11 -48 -16 -48 -8 0 -83 53 -187 132 l-49 37 20 68 c10
37 21 86 24 108 3 22 10 56 16 75 5 19 12 55 14 80 3 25 8 52 11 60 3 8 7 26
9 40 1 14 8 45 14 70 22 95 24 120 6 120 -9 0 -16 4 -16 8 0 4 -19 13 -42 20
-74 20 -73 17 -47 136 19 92 21 109 8 117 -17 11 -32 12 -25 1 2 -4 -4 -9 -15
-9 -11 -1 -17 2 -14 8 7 11 -2 11 -30 0 -11 -5 -32 -5 -46 -1 -24 7 -28 4 -44
-34 -9 -22 -18 -54 -20 -69 -1 -15 -5 -31 -9 -34 -9 -10 -156 65 -156 80 0 7
16 68 36 135 19 68 34 127 32 133 -2 6 -38 11 -86 12 -94 2 -82 15 -127 -135
-14 -49 -28 -88 -30 -88 -2 0 -15 4 -29 10 l-26 10 0 -455 c0 -278 4 -455 9
-455 13 0 85 42 89 52 2 4 21 12 42 18 22 6 46 17 53 25 17 17 27 10 27 -18 0
-27 -22 -87 -31 -87 -4 0 -7 -12 -7 -27 0 -16 -14 -83 -31 -150 -17 -68 -31
-125 -31 -128 0 -3 -4 -5 -9 -5 -11 0 -25 46 -26 85 0 23 -5 31 -23 33 -12 2
-22 8 -22 14 0 6 11 8 25 6 22 -5 25 -2 25 23 0 24 -4 29 -25 29 -16 0 -25 -6
-25 -15 0 -8 -9 -15 -20 -15 -19 0 -20 -7 -20 -205 0 -113 3 -205 8 -205 4 0
39 16 79 37 39 21 74 35 78 31 4 -4 -4 -48 -17 -99 l-23 -92 -62 -35 c-54 -29
-63 -38 -63 -62 0 -30 6 -34 75 -46 57 -9 79 -23 38 -24 -17 0 -34 4 -37 8 -3
5 -21 9 -41 10 l-35 1 0 -488 c0 -382 3 -491 13 -495 9 -5 9 -7 0 -12 -33 -15
-8 -32 69 -47 77 -15 51 -15 -42 -1 l-40 7 0 -51 c0 -31 5 -52 13 -55 9 -4 9
-6 0 -6 -10 -1 -13 -61 -13 -266 l0 -265 1610 0 1610 0 0 1714 c0 1624 -1
1715 -17 1719 -17 4 -17 5 0 6 16 1 17 29 17 432 0 341 -3 429 -12 422 -7 -4
-25 -6 -39 -5 -14 2 -31 -3 -37 -11 -7 -8 -23 -12 -37 -9 -16 3 -33 -2 -45
-13 -12 -11 -20 -13 -20 -7 0 7 -7 12 -15 12 -12 0 -15 17 -15 95 0 52 4 95 8
95 16 0 32 -72 21 -93 -21 -38 7 -37 45 2 l38 39 -34 64 c-29 55 -37 63 -61
61 -18 -1 -27 3 -27 13 0 27 -25 14 -63 -32z m110 -476 c-3 -8 -6 -5 -6 6 -1
11 2 17 5 13 3 -3 4 -12 1 -19z m-14 -568 c-3 -11 -7 -20 -9 -20 -2 0 -4 9 -4
20 0 11 4 20 9 20 5 0 7 -9 4 -20z m28 -23 c-10 -9 -11 -8 -5 6 3 10 9 15 12
12 3 -3 0 -11 -7 -18z m-251 -17 c0 -5 -5 -10 -11 -10 -7 0 -18 -8 -26 -17
-13 -17 -13 -17 -11 2 2 11 12 23 23 27 11 3 21 6 23 7 1 1 2 -3 2 -9z m213
-27 c-7 -2 -19 -2 -25 0 -7 3 -2 5 12 5 14 0 19 -2 13 -5z m-46 -9 c-3 -3 -12
-4 -19 -1 -8 3 -5 6 6 6 11 1 17 -2 13 -5z m127 -15 c13 11 16 9 22 -12 4 -17
11 -24 20 -20 10 4 14 -3 14 -20 0 -14 2 -34 5 -44 3 -10 -1 -4 -9 12 -12 25
-15 26 -17 10 -1 -11 -1 -23 0 -27 1 -8 -14 -12 -36 -9 -7 1 -13 -3 -13 -9 0
-5 7 -10 15 -10 22 0 18 -27 -5 -33 -16 -4 -19 -11 -14 -34 6 -30 -18 -69 -36
-58 -5 3 -11 -14 -13 -37 -3 -28 -4 -21 -4 23 0 36 -2 70 -5 75 -3 5 -9 51
-13 101 l-7 93 31 -6 c23 -5 31 -3 31 7 0 11 2 11 9 0 8 -12 12 -12 25 -2z
m-94 -203 c0 -8 -51 -13 -56 -5 -3 5 9 9 25 9 17 0 31 -2 31 -4z m-683 -12
c-3 -3 -12 -4 -19 -1 -8 3 -5 6 6 6 11 1 17 -2 13 -5z m-20 -40 c-9 -9 -28 6
-21 18 4 6 10 6 17 -1 6 -6 8 -13 4 -17z m823 2 c0 -3 -4 -8 -10 -11 -5 -3
-10 -1 -10 4 0 6 5 11 10 11 6 0 10 -2 10 -4z m-773 -108 c-3 -8 -6 -5 -6 6
-1 11 2 17 5 13 3 -3 4 -12 1 -19z m-1302 2 c3 -5 23 -10 43 -10 l38 0 -4 -40
c-2 -22 -8 -40 -14 -40 -17 0 -98 67 -90 75 4 4 -3 5 -15 2 -22 -5 -30 3 -16
16 10 11 51 8 58 -3z m110 -51 c-10 -15 -25 -10 -19 6 4 8 10 12 15 9 5 -3 7
-10 4 -15z m1403 4 c-10 -2 -26 -2 -35 0 -10 3 -2 5 17 5 19 0 27 -2 18 -5z
m-75 -10 c-7 -2 -21 -2 -30 0 -10 3 -4 5 12 5 17 0 24 -2 18 -5z m-60 -10 c-7
-2 -19 -2 -25 0 -7 3 -2 5 12 5 14 0 19 -2 13 -5z m-1211 -55 c-7 -7 -12 -8
-12 -2 0 14 12 26 19 19 2 -3 -1 -11 -7 -17z m-596 -18 c5 0 10 -5 12 -12 1
-8 -7 -13 -21 -13 -19 0 -22 4 -19 23 3 15 7 20 12 12 4 -6 11 -11 16 -10z
m464 -9 c0 -24 -36 -37 -56 -20 -13 11 -11 14 18 25 18 6 34 12 36 13 1 0 2
-8 2 -18z m1777 -18 c-3 -10 -5 -4 -5 12 0 17 2 24 5 18 2 -7 2 -21 0 -30z
m-1532 7 c3 -5 -3 -27 -15 -49 -11 -22 -20 -54 -20 -71 0 -19 -6 -33 -16 -37
-9 -3 -25 -24 -36 -47 -16 -34 -18 -36 -13 -11 4 17 17 41 31 56 13 14 24 37
24 52 0 15 9 46 20 67 20 39 20 40 1 40 -11 0 -31 -4 -45 -10 -32 -12 -35 -3
-3 10 30 12 64 12 72 0z m-235 -39 c0 -14 -18 -23 -31 -15 -8 4 -7 9 2 15 18
11 29 11 29 0z m879 -52 c-16 -10 -23 -4 -14 10 3 6 11 8 17 5 6 -4 5 -9 -3
-15z m-1373 -5 c-3 -9 -6 -21 -6 -28 0 -9 -10 -12 -27 -9 -20 3 -24 2 -14 -5
11 -8 11 -11 0 -18 -26 -16 -36 -12 -36 17 0 25 4 28 28 25 20 -2 29 2 32 15
3 11 11 19 17 19 7 0 10 -7 6 -16z m-450 -94 c8 0 14 -5 14 -11 0 -5 -8 -9
-18 -7 -10 1 -29 -4 -43 -13 -39 -25 -69 -30 -69 -11 0 10 4 22 8 29 7 12 58
22 80 16 8 -1 20 -3 28 -3z m1022 -52 c12 -27 19 -48 17 -48 -7 0 -45 78 -45
91 0 17 5 10 28 -43z m-696 -44 c27 -20 47 -38 45 -40 -9 -9 -107 48 -107 62
0 20 7 18 62 -22z m-21 -75 c63 -45 64 -47 25 -42 -34 3 -48 -8 -26 -22 8 -5
7 -11 -1 -21 -7 -8 -9 -27 -5 -45 5 -25 2 -32 -14 -36 -11 -3 -20 -9 -20 -14
0 -13 -42 -49 -58 -49 -16 0 -16 5 19 163 12 53 25 97 29 97 4 0 27 -14 51
-31z m839 18 c0 -14 -32 -36 -71 -47 -39 -12 -28 9 19 36 45 26 52 28 52 11z
m-638 -154 c48 -34 96 -67 107 -72 10 -6 22 -22 25 -36 8 -30 -11 -144 -26
-162 -5 -6 -9 -36 -8 -65 3 -80 2 -84 -12 -70 -17 17 -27 15 -22 -5 2 -10 0
-24 -5 -32 -7 -11 -15 -9 -43 13 l-35 26 -6 -67 c-5 -53 -18 -91 -57 -172 -28
-57 -48 -106 -45 -109 3 -3 -2 -13 -11 -23 -16 -17 -18 -17 -54 1 -21 11 -41
16 -44 13 -4 -4 -9 3 -13 15 -3 12 -6 22 -8 22 -1 0 -28 -9 -60 -20 -32 -11
-81 -20 -108 -20 -51 0 -61 8 -14 12 14 1 23 6 21 10 -3 4 -11 5 -19 1 -9 -3
-15 1 -15 10 0 8 -11 22 -25 31 -34 22 -25 33 33 42 26 3 82 17 124 31 76 23
77 24 84 61 3 20 10 53 15 72 13 51 10 69 -6 39 -18 -32 -83 -48 -101 -24 -6
8 -19 15 -28 15 -9 0 -16 5 -16 10 0 6 9 10 21 10 13 0 18 4 13 12 -4 6 -3 8
4 4 6 -3 19 2 29 13 10 11 35 22 56 26 34 7 37 5 38 -16 0 -13 16 23 34 80 27
82 34 123 36 193 1 48 6 88 10 88 5 0 7 29 6 64 -4 75 -13 77 125 -21z m1328
82 c0 -7 -58 -35 -72 -35 -7 1 3 9 22 19 37 20 50 24 50 16z m-360 -15 c12 -8
11 -10 -7 -10 -13 0 -23 5 -23 10 0 13 11 13 30 0z m-65 -81 c11 -17 -1 -21
-15 -4 -8 9 -8 15 -2 15 6 0 14 -5 17 -11z m-116 -111 c-2 -2 -17 -14 -34 -28
l-30 -25 24 28 c14 15 29 27 34 27 6 0 8 -1 6 -2z m-1099 -22 c0 -3 -4 -8 -10
-11 -5 -3 -10 -1 -10 4 0 6 5 11 10 11 6 0 10 -2 10 -4z m2057 -28 l133 -33 0
-67 c0 -48 -4 -68 -12 -68 -9 0 -9 -3 1 -9 9 -6 11 -15 6 -27 -13 -31 -15 -54
-5 -54 19 0 10 -17 -17 -29 -25 -11 -29 -10 -59 23 -19 21 -48 39 -73 46 -26
7 -63 30 -97 61 -39 35 -62 49 -84 49 -27 0 -49 14 -33 22 5 1 21 21 38 43 39
53 58 75 65 75 3 0 65 -14 137 -32z m-1375 -344 c18 -9 58 -20 88 -23 l55 -6
-4 -35 c-1 -19 -7 -43 -13 -53 -5 -10 -12 -31 -14 -45 -15 -82 -26 -103 -77
-143 -28 -23 -57 -54 -63 -69 -7 -15 -30 -40 -52 -56 -42 -30 -43 -32 -26 -95
2 -9 15 -21 28 -28 15 -9 22 -19 19 -31 -3 -10 -1 -20 4 -23 5 -3 31 38 57 91
49 100 90 161 102 150 3 -4 8 -30 9 -58 3 -56 20 -81 66 -100 16 -7 29 -18 30
-24 0 -6 3 -31 5 -55 4 -31 0 -54 -12 -77 -16 -30 -17 -41 -4 -141 7 -59 14
-122 14 -140 1 -17 4 -35 9 -39 4 -4 7 -22 7 -40 0 -30 -5 -36 -49 -59 -45
-22 -81 -57 -81 -77 0 -14 35 6 80 45 l45 39 6 -38 c5 -25 6 -6 5 49 l-1 87
53 0 52 0 0 43 c0 35 7 51 33 83 65 77 67 82 67 180 0 99 21 229 42 263 14 23
44 37 98 46 33 6 37 4 58 -34 13 -22 49 -67 80 -99 31 -32 67 -70 79 -85 15
-19 31 -27 52 -27 23 0 31 -5 31 -18 0 -11 10 -27 21 -38 29 -26 111 -150 131
-199 9 -22 20 -56 24 -75 3 -19 11 -41 16 -48 8 -9 5 -12 -13 -10 -23 3 -24 1
-27 -84 -2 -76 -1 -88 14 -88 11 0 15 6 11 19 -4 17 -2 18 14 8 10 -6 19 -16
19 -21 0 -4 6 -3 13 3 8 6 18 7 22 3 5 -4 5 -2 2 4 -4 7 -1 14 7 17 14 6 16
-16 3 -29 -4 -4 -7 -15 -7 -25 0 -15 -11 -18 -75 -21 l-75 -3 -1 50 -1 50 -11
-32 c-7 -18 -18 -38 -24 -44 -13 -13 -14 -14 6 64 5 21 8 50 6 65 -2 15 0 32
3 37 4 6 8 19 10 30 2 18 1 18 -12 5 -8 -8 -25 -61 -38 -117 -20 -92 -25 -103
-45 -103 -12 0 -28 -3 -37 -6 -13 -5 -16 1 -16 27 0 50 -12 109 -20 104 -4 -2
-13 -32 -20 -65 -12 -56 -14 -60 -41 -60 -16 0 -29 -5 -29 -11 0 -6 19 -9 49
-8 39 2 54 -2 80 -22 31 -25 32 -27 29 -95 -2 -50 -7 -68 -16 -66 -7 1 -22 -4
-33 -12 -20 -14 -20 -14 2 -30 27 -19 32 -14 -93 -95 l-96 -62 -106 68 -105
68 86 64 c47 34 96 68 109 73 12 6 25 20 29 32 6 21 6 21 15 1 6 -15 9 -6 9
33 1 47 -1 52 -20 52 -18 0 -19 3 -9 15 6 8 8 20 4 26 -4 7 -3 9 2 6 14 -8 16
71 3 110 -5 17 -17 37 -25 43 -12 11 -12 8 1 -16 44 -85 -20 -197 -103 -181
-14 3 -20 1 -14 -5 5 -5 22 -10 38 -12 16 -2 34 -4 39 -5 13 -2 -61 -68 -96
-87 -34 -17 -164 -37 -193 -29 -15 5 -17 4 -8 -3 18 -12 -17 -22 -73 -21 -36
0 -96 17 -69 18 6 1 41 24 79 52 l67 51 43 -21 c23 -11 49 -21 57 -21 23 0 39
25 40 62 0 100 -8 208 -17 217 -8 8 -10 0 -7 -24 3 -22 -2 -45 -12 -60 -15
-23 -15 -28 3 -65 l19 -40 -27 0 c-23 0 -31 7 -44 40 -11 30 -21 40 -37 40
-20 0 -22 -4 -18 -40 3 -38 2 -40 -24 -40 -34 0 -37 -15 -5 -24 22 -5 22 -5 2
-25 -11 -10 -57 -38 -102 -61 l-83 -42 -120 12 c-67 7 -123 17 -126 22 -3 4
27 8 66 8 38 0 78 4 88 9 9 5 29 14 43 21 38 17 72 66 64 91 -6 18 -8 18 -18
5 -22 -28 -137 -16 -137 14 0 6 5 8 12 4 8 -5 9 -2 5 9 -3 10 -2 17 3 17 6 0
10 7 10 15 0 8 -4 15 -10 15 -15 0 -41 -57 -34 -74 5 -13 -1 -16 -26 -16 -18
0 -29 4 -25 10 3 6 2 10 -4 10 -5 0 -16 3 -24 6 -9 3 -16 -3 -20 -16 -4 -14
-12 -21 -24 -18 -13 2 -19 14 -21 43 -1 22 -5 64 -8 94 -5 39 -2 56 7 62 11 7
11 9 1 9 -7 0 -10 5 -7 10 3 6 -1 10 -9 10 -13 0 -16 -15 -16 -91 0 -50 -4
-99 -10 -109 -22 -42 -105 -33 -136 15 -15 23 -16 28 -2 41 14 14 16 13 22
-10 3 -14 15 -30 26 -36 15 -8 21 -6 30 10 6 11 7 20 2 20 -5 0 -7 11 -4 25 3
18 0 25 -12 25 -10 0 -16 9 -16 23 0 12 -1 32 -1 45 0 16 -6 22 -21 22 -22 0
-58 26 -58 42 0 4 5 8 10 8 6 0 10 -7 10 -15 0 -10 10 -15 31 -15 28 0 29 1
15 16 -18 18 -21 34 -6 34 6 0 4 13 -5 30 -17 32 -48 42 -43 13 2 -12 -4 -19
-19 -21 -26 -4 -44 -23 -46 -51 -1 -15 -8 -21 -25 -21 l-24 0 24 31 c13 17 44
54 69 82 26 29 45 59 43 67 -2 8 -8 33 -13 55 -9 35 -9 31 -5 -22 4 -35 4 -63
1 -63 -3 0 -11 26 -17 58 -6 31 -14 67 -17 80 -3 12 0 22 6 22 6 0 11 -7 11
-15 0 -8 4 -15 8 -15 5 0 13 32 18 70 7 54 7 70 -2 70 -14 0 -20 16 -29 82 -7
44 -6 46 14 41 25 -6 25 -4 6 33 -31 60 -11 113 86 235 44 56 69 94 61 97 -6
2 -12 8 -12 13 0 6 4 8 9 5 5 -3 21 15 36 40 15 26 32 43 39 41 7 -3 18 -2 25
2 25 16 139 12 173 -5z m1134 -69 c4 -8 10 -13 14 -10 17 11 210 -190 210
-219 0 -3 -16 -6 -35 -6 -19 0 -35 5 -35 11 0 8 -5 7 -15 -1 -9 -7 -17 -11
-19 -9 -2 2 -19 30 -39 61 -34 53 -61 78 -87 78 -6 0 -31 -20 -56 -44 -24 -24
-64 -51 -87 -59 -23 -8 -49 -18 -58 -21 -13 -6 -19 4 -31 46 -14 52 -14 52 11
74 28 22 114 74 124 74 4 0 2 -12 -4 -27 -13 -34 -5 -52 20 -50 18 1 18 4 7
32 -15 38 -11 58 17 72 32 16 57 15 63 -2z m374 -28 c0 -24 -5 -48 -12 -55 -8
-8 -8 -15 2 -27 12 -14 11 -18 -1 -26 -10 -6 -11 -9 -1 -9 10 0 12 -15 10 -55
l-3 -55 -40 1 c-55 1 -69 9 -73 42 -3 27 41 111 74 137 8 7 14 30 14 51 0 28
4 39 15 39 11 0 15 -11 15 -43z m-2460 -97 c0 -5 -4 -10 -10 -10 -5 0 -10 5
-10 10 0 6 5 10 10 10 6 0 10 -4 10 -10z m2971 -17 c13 -16 12 -17 -3 -4 -17
13 -22 21 -14 21 2 0 10 -8 17 -17z m-2851 -149 c0 -8 -4 -12 -10 -9 -5 3 -10
10 -10 16 0 5 5 9 10 9 6 0 10 -7 10 -16z m345 -112 c10 -57 15 -105 13 -108
-7 -7 -48 162 -48 198 0 60 18 14 35 -90z m1943 81 l42 -6 0 -44 0 -45 -47 7
c-48 7 -101 30 -138 59 l-20 16 20 16 c14 11 31 14 60 9 22 -3 59 -9 83 -12z
m-1926 -28 c3 -14 2 -25 -2 -25 -4 0 -10 13 -12 29 -5 36 8 32 14 -4z m1985
-7 c-3 -7 -5 -2 -5 12 0 14 2 19 5 13 2 -7 2 -19 0 -25z m-2507 -8 c0 -5 -4
-10 -10 -10 -5 0 -10 5 -10 10 0 6 5 10 10 10 6 0 10 -4 10 -10z m2130 -20 c0
-35 -6 -37 -38 -10 -27 23 -21 40 14 40 20 0 24 -5 24 -30z m827 24 c-3 -3
-12 -4 -19 -1 -8 3 -5 6 6 6 11 1 17 -2 13 -5z m-2704 -30 c-4 -12 -8 -13 -14
-3 -9 15 -2 32 11 24 5 -3 6 -13 3 -21z m2083 -4 c6 -6 40 -17 77 -24 37 -8
74 -21 83 -30 10 -11 35 -16 77 -17 44 0 56 -3 42 -9 -25 -11 -276 -13 -291
-2 -11 7 -14 92 -3 92 3 0 10 -5 15 -10z m-1804 -25 c3 -13 1 -22 -3 -19 -9 5
-13 44 -5 44 2 0 6 -11 8 -25z m-482 -46 c0 -5 -4 -9 -10 -9 -5 0 -10 7 -10
16 0 8 5 12 10 9 6 -3 10 -10 10 -16z m497 -51 c-3 -8 -6 -5 -6 6 -1 11 2 17
5 13 3 -3 4 -12 1 -19z m1441 3 c10 -6 0 -17 -37 -40 -60 -36 -58 -36 -63 -13
-3 12 9 24 37 39 46 26 46 25 63 14z m83 -111 c32 -23 47 -40 43 -50 -3 -8 -2
-11 2 -7 9 9 54 -31 54 -48 0 -6 15 -26 33 -43 33 -32 34 -34 25 -90 -4 -31
-13 -66 -19 -78 -6 -12 -9 -62 -7 -117 3 -85 1 -97 -14 -97 -9 0 -23 -3 -31
-6 -13 -5 -15 4 -12 51 2 41 0 53 -9 46 -11 -10 -76 39 -76 58 0 5 -6 12 -12
14 -8 3 -6 6 5 6 9 1 17 7 17 15 0 8 9 17 19 21 22 7 35 32 20 41 -5 3 -16 3
-24 0 -10 -3 -17 4 -21 22 -15 70 -37 119 -89 198 -32 47 -53 89 -49 94 5 4
27 19 49 34 l40 26 3 -27 c3 -20 17 -38 53 -63z m-1751 61 c0 -5 -7 -14 -15
-21 -12 -10 -15 -10 -15 2 0 8 3 18 7 21 9 10 23 9 23 -2z m24 -52 c-8 -13
-24 -1 -24 18 0 13 3 13 15 3 8 -7 12 -16 9 -21z m158 -10 c-12 -12 -28 -37
-37 -55 -22 -46 -29 -43 -10 3 16 38 55 87 63 79 2 -3 -5 -15 -16 -27z m2490
-161 c-9 -9 -15 -9 -24 0 -9 9 -7 12 12 12 19 0 21 -3 12 -12z m-2754 -50 c-7
-12 -19 -28 -25 -36 -11 -11 -13 -8 -13 16 0 29 10 39 38 41 10 1 10 -3 0 -21z
m-183 -58 c3 -5 1 -10 -4 -10 -6 0 -11 5 -11 10 0 6 2 10 4 10 3 0 8 -4 11
-10z m2289 -48 l19 -27 -28 25 c-27 24 -27 23 11 -47 21 -40 41 -73 44 -73 8
0 4 116 -4 129 -5 7 4 11 26 11 l33 0 0 -115 c0 -108 -1 -115 -20 -116 -11 0
-32 -3 -46 -5 -17 -3 -32 2 -44 16 -20 22 -7 27 26 10 10 -6 19 -9 19 -6 0 7
-70 126 -74 126 -2 0 -2 -31 -1 -70 2 -67 1 -70 -20 -70 -14 0 -34 -13 -49
-31 -34 -40 -34 -28 0 16 24 32 25 39 22 139 l-3 105 30 4 c17 2 32 4 35 5 3
1 14 -11 24 -26z m296 6 c0 -7 3 -24 7 -37 6 -24 6 -24 -18 -8 -34 25 -65 21
-89 -10 -23 -30 -23 -81 1 -109 15 -19 65 -18 73 1 9 25 -3 43 -26 37 -16 -4
-19 -1 -16 14 2 14 13 20 46 22 l42 3 0 -60 c0 -59 0 -59 -36 -71 -98 -33
-173 44 -144 149 15 55 50 81 111 81 33 0 49 -4 49 -12z m-549 -119 c15 -15
18 -24 10 -32 -8 -8 -14 -8 -23 1 -9 9 -9 12 3 13 7 0 4 4 -8 9 -13 5 -23 14
-23 20 0 16 18 12 41 -11z m-1333 -149 c-2 -13 -13 -27 -26 -31 -19 -7 -24 -5
-31 14 -7 17 -4 24 9 29 10 4 21 12 25 18 11 18 27 -4 23 -30z m267 20 c-3 -5
-10 -10 -16 -10 -5 0 -9 5 -9 10 0 6 7 10 16 10 8 0 12 -4 9 -10z m962 -62
c-7 -80 -15 -93 -51 -84 -24 6 -26 11 -26 59 0 47 3 54 33 74 17 12 36 22 41
22 5 1 6 -31 3 -71z m152 56 c2 -2 -7 -4 -20 -5 -13 0 -43 -1 -66 -2 -44 -2
-46 8 -3 15 24 4 81 -1 89 -8z m31 6 c0 -5 -2 -10 -4 -10 -3 0 -8 5 -11 10 -3
6 -1 10 4 10 6 0 11 -4 11 -10z m-42 -37 c-21 -2 -57 -2 -80 0 -24 2 -7 4 37
4 44 0 63 -2 43 -4z m316 -43 c7 -24 6 -24 -8 -6 -9 11 -16 29 -16 40 1 17 2
18 9 6 5 -8 12 -26 15 -40z m-1587 -36 c-3 -3 -12 -4 -19 -1 -8 3 -5 6 6 6 11
1 17 -2 13 -5z m-392 -34 c3 -6 -1 -7 -9 -4 -18 7 -21 14 -7 14 6 0 13 -4 16
-10z m1610 -10 c3 -5 -4 -6 -15 -3 -11 3 -22 9 -25 13 -3 5 4 6 15 3 11 -3 22
-9 25 -13z m47 8 c-9 -9 -15 -9 -24 0 -9 9 -7 12 12 12 19 0 21 -3 12 -12z
m502 -185 c5 -11 0 -23 -14 -33 -13 -10 -19 -22 -15 -33 6 -15 10 -14 39 8 38
29 49 31 66 10 10 -12 15 -12 36 1 24 16 60 12 49 -5 -3 -6 -12 -8 -19 -5 -18
7 -31 -15 -18 -28 8 -8 23 -1 52 22 22 18 47 29 55 26 22 -8 18 -25 -5 -19
-14 4 -20 0 -20 -10 0 -29 21 -29 56 2 36 32 58 39 69 21 4 -6 10 -8 15 -5 5
3 5 -8 -1 -24 -13 -36 -36 -47 -60 -25 -16 14 -19 14 -41 0 -21 -14 -27 -14
-43 -2 -17 12 -22 12 -39 0 -26 -18 -31 -18 -50 1 -14 14 -18 14 -41 -1 -24
-16 -27 -16 -45 1 -16 14 -23 15 -34 6 -19 -16 -32 -8 -41 26 -5 21 -1 31 17
45 24 18 22 19 -24 22 -27 2 -28 0 -28 -50 0 -29 -4 -56 -10 -59 -6 -4 -10 18
-10 59 l0 66 49 0 c37 0 50 -4 55 -17z m366 -7 c0 -11 -19 -15 -25 -6 -3 5 1
10 9 10 9 0 16 -2 16 -4z m30 -16 c0 -5 -4 -10 -10 -10 -5 0 -10 5 -10 10 0 6
5 10 10 10 6 0 10 -4 10 -10z m-6 -41 c-3 -5 -10 -7 -15 -3 -5 3 -7 10 -3 15
3 5 10 7 15 3 5 -3 7 -10 3 -15z"/>
<path d="M570 2190 c0 -11 5 -20 10 -20 6 0 10 9 10 20 0 11 -4 20 -10 20 -5
0 -10 -9 -10 -20z"/>
<path d="M437 1811 c-4 -17 -3 -21 5 -13 5 5 8 16 6 23 -3 8 -7 3 -11 -10z"/>
<path d="M1841 975 c-17 -20 -31 -41 -31 -48 0 -8 4 -7 11 3 8 12 10 11 7 -5
-2 -11 -8 -19 -13 -17 -10 4 -23 -23 -24 -50 -1 -10 4 -18 10 -18 6 0 8 9 4
23 -5 16 -4 18 4 8 7 -12 13 -6 26 27 19 47 70 96 91 88 8 -3 14 -1 14 3 0 11
-25 21 -50 21 -10 0 -32 -16 -49 -35z"/>
<path d="M1420 855 c-13 -14 -21 -25 -17 -25 3 0 17 11 31 25 14 14 22 25 17
25 -4 0 -18 -11 -31 -25z"/>
<path d="M1853 798 c4 -24 13 -63 22 -88 l15 -45 -6 50 c-10 82 -12 99 -13
113 -1 6 -6 12 -12 12 -8 0 -10 -14 -6 -42z"/>
<path d="M947 823 c-4 -3 -7 -27 -7 -52 0 -35 3 -42 12 -33 7 7 13 30 13 52 1
39 -4 47 -18 33z"/>
<path d="M1040 793 c-22 -38 -22 -38 -4 -91 10 -29 24 -61 32 -70 16 -20 14
-12 -17 65 l-20 52 29 21 c29 20 44 49 18 34 -9 -5 -9 -2 1 9 11 15 11 17 -2
17 -8 0 -25 -17 -37 -37z"/>
<path d="M1730 808 c1 -41 26 -143 32 -133 3 6 2 32 -3 58 -4 26 -6 54 -3 62
4 8 1 15 -6 15 -6 0 -8 5 -5 10 3 6 1 10 -4 10 -6 0 -11 -10 -11 -22z"/>
<path d="M1310 765 c0 -32 3 -35 28 -35 27 0 52 15 52 31 0 16 -33 39 -56 39
-21 0 -24 -5 -24 -35z"/>
<path d="M1527 785 c-32 -32 -28 -125 5 -125 9 0 9 3 0 12 -28 28 -7 108 28
108 11 0 20 5 20 10 0 15 -37 12 -53 -5z"/>
<path d="M1153 613 c-12 -13 -19 -23 -15 -23 4 0 17 -3 30 -6 17 -5 22 -2 22
12 0 34 -14 40 -37 17z"/>
<path d="M1641 389 c-13 -10 -18 -19 -12 -19 7 0 11 -20 11 -50 0 -41 3 -50
18 -50 14 0 17 8 14 52 -5 92 -4 89 -31 67z"/>
<path d="M2083 1083 c9 -2 23 -2 30 0 6 3 -1 5 -18 5 -16 0 -22 -2 -12 -5z"/>
<path d="M2067 1059 c7 -7 15 -10 18 -7 3 3 -2 9 -12 12 -14 6 -15 5 -6 -5z"/>
<path d="M2168 1033 c7 -3 16 -2 19 1 4 3 -2 6 -13 5 -11 0 -14 -3 -6 -6z"/>
<path d="M2130 1005 c14 -16 29 -32 33 -33 4 -2 2 -11 -5 -20 -12 -15 -11 -16
4 -4 9 8 23 10 30 6 7 -4 10 -3 5 1 -4 5 1 18 10 29 18 21 18 21 -3 4 -25 -22
-41 -24 -24 -3 11 13 10 14 -4 9 -11 -4 -27 2 -44 17 l-27 24 25 -30z"/>
<path d="M2221 919 c-1 -34 -4 -66 -8 -72 -3 -6 -1 -7 5 -3 7 4 12 19 12 34 0
15 4 34 10 42 5 9 5 19 -1 27 -6 7 -8 17 -4 23 3 5 2 10 -3 10 -5 0 -10 -27
-11 -61z"/>
<path d="M2148 793 c6 -2 18 -2 25 0 6 3 1 5 -13 5 -14 0 -19 -2 -12 -5z"/>
<path d="M2165 740 c3 -5 8 -10 11 -10 2 0 4 5 4 10 0 6 -5 10 -11 10 -5 0 -7
-4 -4 -10z"/>
<path d="M2690 170 c0 -13 5 -20 13 -17 6 2 12 10 12 17 0 7 -6 15 -12 18 -8
2 -13 -5 -13 -18z"/>
<path d="M2944 179 c-8 -14 11 -33 25 -25 11 7 4 36 -9 36 -5 0 -12 -5 -16
-11z"/>
<path d="M90 4505 c-7 -9 -8 -15 -2 -15 5 0 12 7 16 15 3 8 4 15 2 15 -2 0 -9
-7 -16 -15z"/>
<path d="M1299 4463 c-12 -14 -12 -15 0 -9 8 5 17 3 22 -5 6 -10 9 -8 9 9 0
26 -12 28 -31 5z"/>
<path d="M1350 4454 c0 -16 4 -23 12 -18 7 4 8 3 4 -4 -4 -7 -29 -12 -57 -12
-50 0 -57 -7 -39 -38 12 -21 50 -202 50 -237 0 -13 -23 -68 -52 -121 l-51 -96
-86 6 c-135 11 -150 14 -143 38 3 11 20 27 38 34 45 19 43 29 -8 42 -50 13
-67 2 -100 -62 l-20 -40 22 -18 c33 -27 111 -46 235 -58 99 -10 111 -10 122 6
66 90 290 551 275 566 -12 12 -112 21 -112 10 0 -6 5 -12 11 -14 11 -4 -53
-192 -71 -212 -5 -5 -11 7 -15 25 -3 19 -9 56 -14 83 -10 55 2 86 32 86 10 0
15 5 12 10 -3 6 -2 10 4 10 5 0 9 9 8 20 -1 15 -8 20 -29 20 -23 0 -28 -4 -28
-26z"/>
<path d="M1090 3993 c1 -18 18 -35 24 -24 4 6 4 16 1 21 -7 12 -25 13 -25 3z"/>
<path d="M2733 3864 c-3 -8 -13 -14 -22 -15 -13 0 -13 -2 -1 -6 8 -3 26 -14
40 -23 36 -25 77 -32 99 -18 16 10 17 15 8 26 -9 11 -7 17 6 27 9 7 17 14 17
17 0 2 -32 5 -71 5 -51 0 -72 -4 -76 -13z"/>
<path d="M2534 3858 c-9 -14 28 -98 47 -108 28 -15 29 -13 29 45 0 48 3 57 23
65 17 7 8 9 -36 8 -32 -1 -60 -5 -63 -10z"/>
<path d="M1560 3725 c0 -39 3 -45 24 -51 28 -7 49 2 41 17 -4 5 -16 10 -28 10
-17 1 -18 2 -4 6 9 2 17 11 17 19 0 8 -4 13 -9 9 -5 -3 -12 -1 -16 5 -3 5 3
10 14 10 12 0 21 5 21 10 0 6 -13 10 -30 10 -29 0 -30 -2 -30 -45z"/>
<path d="M1750 3725 c-14 -50 -7 -69 14 -40 13 18 14 18 31 1 24 -24 27 -16
13 38 -16 62 -41 62 -58 1z"/>
<path d="M2599 3730 c0 -3 -2 -15 -5 -28 -4 -22 -3 -22 12 -7 13 12 14 19 5
28 -6 6 -11 9 -12 7z"/>
<path d="M2621 3646 c-10 -12 -6 -21 19 -48 16 -18 27 -25 24 -15 -3 9 -10 17
-14 17 -4 0 -5 11 -3 24 6 28 -10 41 -26 22z"/>
<path d="M830 3540 c0 -56 3 -70 15 -70 8 0 15 8 15 18 0 9 15 24 33 32 17 8
33 23 35 32 5 25 -34 58 -68 58 l-30 0 0 -70z m63 25 c1 -5 -6 -11 -15 -13
-11 -2 -18 3 -18 13 0 17 30 18 33 0z"/>
<path d="M946 3543 l1 -68 43 0 c26 0 45 5 48 13 2 8 -7 12 -27 12 -17 0 -31
5 -31 10 0 6 9 10 20 10 13 0 20 7 20 20 0 13 -7 20 -20 20 -11 0 -20 5 -20
11 0 7 10 9 25 6 20 -3 25 -1 23 12 -2 11 -16 17 -43 19 l-40 3 1 -68z"/>
<path d="M1056 3543 l2 -68 34 -3 c23 -2 39 3 50 15 44 49 11 123 -54 123
l-33 0 1 -67z m58 31 c19 -7 21 -45 4 -62 -21 -21 -28 -13 -28 28 0 43 0 43
24 34z"/>
<path d="M1180 3540 c0 -62 2 -70 19 -70 14 0 18 5 14 19 -8 30 16 35 27 7 5
-14 17 -26 26 -26 11 0 14 5 9 18 -9 24 -9 24 0 55 10 38 -16 67 -62 67 l-33
0 0 -70z m63 25 c1 -5 -6 -11 -15 -13 -11 -2 -18 3 -18 13 0 17 30 18 33 0z"/>
<path d="M1317 3550 c-21 -73 -21 -80 -2 -80 8 0 15 7 15 15 0 9 9 15 25 15
16 0 25 -6 25 -15 0 -8 8 -15 19 -15 18 0 18 2 -3 70 -17 57 -25 70 -42 70
-17 0 -24 -11 -37 -60z"/>
<path d="M1470 3541 c0 -64 2 -71 20 -71 15 0 20 7 20 25 0 18 5 25 20 25 12
0 20 7 20 16 0 9 -9 18 -20 21 -29 8 -24 26 5 20 20 -3 25 -1 23 12 -2 11 -16
17 -46 19 l-42 3 0 -70z"/>
<path d="M1580 3541 c0 -65 2 -71 20 -71 19 0 21 5 18 67 -2 55 -6 68 -20 71
-16 3 -18 -5 -18 -67z"/>
<path d="M1642 3540 l2 -71 41 3 c27 2 41 8 43 19 2 13 -3 15 -23 12 -24 -5
-25 -4 -25 51 0 50 -2 56 -20 56 -19 0 -20 -6 -18 -70z"/>
<path d="M1749 3594 c-19 -23 -16 -80 6 -104 38 -41 95 -13 95 48 0 58 -68 96
-101 56z m55 -20 c20 -8 21 -48 1 -64 -20 -16 -35 -4 -35 29 0 38 7 45 34 35z"/>
<path d="M1870 3590 c-13 -25 -7 -36 33 -60 26 -16 28 -20 14 -26 -10 -3 -24
-1 -32 6 -21 17 -29 6 -15 -19 7 -14 21 -21 38 -21 57 0 71 50 22 78 -45 26
-35 46 10 22 17 -9 19 -8 11 12 -11 32 -65 37 -81 8z"/>
<path d="M1986 3594 c-35 -35 -8 -124 38 -124 37 0 60 24 60 63 0 63 -59 100
-98 61z m59 -55 c0 -27 -4 -34 -20 -34 -24 0 -33 38 -14 61 19 23 34 11 34
-27z"/>
<path d="M2105 3543 c0 -57 3 -68 18 -71 13 -3 17 3 17 22 0 20 5 26 21 26 14
0 19 5 17 18 -2 10 -11 16 -21 14 -10 -2 -17 4 -17 14 0 13 6 15 30 10 28 -5
30 -4 20 14 -8 14 -21 20 -48 20 l-37 0 0 -67z"/>
<path d="M2213 3546 c-11 -36 -18 -67 -15 -70 11 -12 32 -6 32 9 0 8 9 15 19
15 10 0 21 -7 25 -15 4 -12 37 -23 36 -12 -1 1 -9 31 -19 67 -13 49 -23 66
-37 68 -16 2 -24 -9 -41 -62z m47 -1 c0 -8 -4 -15 -10 -15 -5 0 -7 7 -4 15 4
8 8 15 10 15 2 0 4 -7 4 -15z"/>
<path d="M2330 3540 l0 -70 39 0 c25 0 41 5 45 15 4 11 -2 15 -24 15 -30 0
-30 1 -30 55 0 42 -3 55 -15 55 -12 0 -15 -14 -15 -70z"/>
<path d="M2688 3583 c7 -3 16 -2 19 1 4 3 -2 6 -13 5 -11 0 -14 -3 -6 -6z"/>
<path d="M457 3526 c-4 -10 -7 -25 -6 -34 0 -11 4 -9 10 7 5 13 8 29 6 35 -2
5 -6 2 -10 -8z"/>
<path d="M2533 3245 c0 -27 2 -38 4 -22 2 15 2 37 0 50 -2 12 -4 0 -4 -28z"/>
<path d="M2408 3093 c6 -2 18 -2 25 0 6 3 1 5 -13 5 -14 0 -19 -2 -12 -5z"/>
<path d="M931 2649 c-1 -9 7 -23 17 -30 15 -12 16 -12 6 1 -6 8 -14 22 -17 30
-5 13 -6 12 -6 -1z"/>
<path d="M125 2498 c-16 -5 -43 -16 -58 -24 -16 -8 -37 -14 -48 -14 -24 0 -27
-45 -3 -54 23 -9 24 -8 24 15 0 16 5 20 20 16 11 -3 20 -1 20 4 0 5 9 9 20 9
11 0 20 4 20 9 0 5 11 12 25 15 14 4 25 13 25 21 0 17 -3 17 -45 3z"/>
</g>
</svg>
